<svg xmlns="http://www.w3.org/2000/svg" viewBox="0 0 64 64">
  <defs>
    <linearGradient id="bg" x1="12" x2="52" y1="8" y2="58" gradientUnits="userSpaceOnUse">
      <stop stop-color="#0b1c30"/>
      <stop offset="1" stop-color="#0058be"/>
    </linearGradient>
    <linearGradient id="coin" x1="22" x2="46" y1="16" y2="42" gradientUnits="userSpaceOnUse">
      <stop stop-color="#4edea3"/>
      <stop offset="1" stop-color="#22c55e"/>
    </linearGradient>
  </defs>
  <rect width="64" height="64" rx="16" fill="url(#bg)"/>
  <path d="M16 23.5c0-3 2.4-5.5 5.5-5.5h21c3 0 5.5 2.4 5.5 5.5v2.2H23.4c-1.8 0-3.2 1.4-3.2 3.2v12.6c0 1.8 1.4 3.2 3.2 3.2H48v1.8c0 3-2.4 5.5-5.5 5.5h-21c-3 0-5.5-2.4-5.5-5.5v-23z" fill="#f8f9ff"/>
  <path d="M20.2 28.9c0-1.8 1.4-3.2 3.2-3.2h26.4c1.8 0 3.2 1.4 3.2 3.2v12.6c0 1.8-1.4 3.2-3.2 3.2H23.4c-1.8 0-3.2-1.4-3.2-3.2V28.9z" fill="#dce9ff"/>
  <circle cx="43.5" cy="35.2" r="7.8" fill="url(#coin)"/>
  <path d="M39.7 38.8v-7.2h1.9v2.8h1.5l2-2.8h2.2l-2.6 3.5 2.8 3.7h-2.3l-2.1-2.9h-1.5v2.9h-1.9z" fill="#0b1c30"/>
  <path d="M22 20.8h17.5c1.1 0 2 .9 2 2v2.9H23.4c-2.9 0-5.2 2.3-5.2 5.2v-6.1c0-2.2 1.7-4 3.8-4z" fill="#bfdbfe"/>
</svg>
